<svg id="Layer_1" data-name="Layer 1" xmlns="http://www.w3.org/2000/svg" viewBox="0 0 648.32 670.47"><defs><style>.cls-1{fill:none;}</style></defs><title>fime_labs</title><path d="M629.08,695c-46,45-132,9-132,9-51-20-96-23-96-23l-1-.18h0v0l-1,.17s-45,3-96,23c0,0-86,36-132-9-53-55,56-200,56-200s47.16-65.35,121-91.53A181.58,181.58,0,0,1,400,393h.08a181.58,181.58,0,0,1,52,10.47c73.86,26.18,121,91.53,121,91.53S682.08,640,629.08,695Z" transform="translate(-74.7 -79.65)"/><polygon points="325.3 601.16 325.34 601.17 325.3 601.18 325.3 601.16"/><line class="cls-1" x1="325.3" y1="670.47" x2="325.3" y2="601.18"/><line class="cls-1" x1="325.3" y1="313.35" x2="325.3" y2="274.47"/><path d="M313.68,348.5c-16.48,0-34.07-6.85-49.55-19.29-16-12.88-28.95-30.75-37.42-51.68-14.66-36.28-12.7-76.23,5-101.78l68.9-92.1a8.4,8.4,0,0,1,6.84-3.5,8.65,8.65,0,0,1,8.76,8.68l.07,71.28.25.14c21.43,12.22,39.81,34.3,50.44,60.58,21.21,52.47,7,107.88-31.65,123.52A57.59,57.59,0,0,1,313.68,348.5Z" transform="translate(-74.7 -79.65)"/><path d="M307.45,80.65h0a8.15,8.15,0,0,1,8.26,8.18l.07,71v.58l.5.29c21.34,12.16,39.64,34.15,50.22,60.32,21.11,52.23,7,107.34-31.36,122.87A56.91,56.91,0,0,1,313.68,348c-16.36,0-33.85-6.81-49.23-19.18-15.95-12.83-28.84-30.63-37.27-51.47-7.35-18.19-10.69-37.39-9.65-55.53,1-17.59,6-33.39,14.54-45.71h0l0-.06,2.89-3.87L301,84a7.9,7.9,0,0,1,6.44-3.3m0-1a8.92,8.92,0,0,0-7.24,3.7l-66,88.23-2.89,3.87,0,0c-17.34,25-20.37,64.35-5.05,102.25C243.76,321,279.78,349,313.68,349a58,58,0,0,0,21.83-4.19c39-15.76,53.27-71.36,31.92-124.17-11.15-27.58-29.81-48.94-50.65-60.82l-.07-71a9.14,9.14,0,0,0-9.26-9.18Z" transform="translate(-74.7 -79.65)"/><path d="M234.21,171.58l-2.89,3.87Q232.7,173.46,234.21,171.58Z" transform="translate(-74.7 -79.65)"/><path d="M234.21,171.58q-1.52,1.88-2.89,3.87l2.89-3.87Z" transform="translate(-74.7 -79.65)"/><path d="M231.3,175.47Z" transform="translate(-74.7 -79.65)"/><path d="M483.79,348.5a57.68,57.68,0,0,1-21.65-4.15c-38.66-15.64-52.86-71.05-31.64-123.52,10.62-26.28,29-48.36,50.43-60.58l.26-.14.06-71.28A8.65,8.65,0,0,1,490,80.15a8.4,8.4,0,0,1,6.84,3.5l66,88.23,2.89,3.87c17.72,25.55,19.68,65.5,5,101.78-8.46,20.93-21.4,38.8-37.42,51.68-15.47,12.44-33.07,19.29-49.54,19.29Z" transform="translate(-74.7 -79.65)"/><path d="M490,80.65a7.88,7.88,0,0,1,6.44,3.3l66,88.23,2.89,3.87,0,0c8.52,12.32,13.55,28.13,14.56,45.73,1,18.14-2.3,37.34-9.65,55.53C561.86,298.19,549,316,533,328.82,517.63,341.19,500.15,348,483.79,348a56.84,56.84,0,0,1-21.46-4.12C423.92,328.35,409.85,273.24,431,221c10.59-26.17,28.89-48.16,50.22-60.32l.5-.29v-.58l.07-71A8.16,8.16,0,0,1,490,80.65m0-1a9.14,9.14,0,0,0-9.26,9.18l-.07,71c-20.84,11.88-39.5,33.24-50.65,60.82C408.68,273.45,423,329.05,462,344.81A58,58,0,0,0,483.79,349c33.89,0,69.91-28,87.42-71.28,15.32-37.9,12.29-77.23-5.05-102.25l0,0-2.89-3.87-66-88.23a8.91,8.91,0,0,0-7.24-3.7Z" transform="translate(-74.7 -79.65)"/><path d="M645.15,470a45.93,45.93,0,0,1-17.28-3.32C597,454.2,585.66,409.93,602.61,368c8.49-21,23.18-38.65,40.31-48.41l.25-.15.06-57.08a6.81,6.81,0,0,1,6.9-6.84,6.6,6.6,0,0,1,5.39,2.76l52.81,70.58,2.31,3.1c14.15,20.41,15.71,52.33,4,81.33C701.13,446.68,672.55,470,645.15,470Z" transform="translate(-74.7 -79.65)"/><path d="M650.13,256a6.12,6.12,0,0,1,5,2.56l52.8,70.58,2.32,3.1,0,0c6.79,9.83,10.8,22.44,11.6,36.48a103.68,103.68,0,0,1-7.7,44.33c-6.74,16.65-17,30.86-29.76,41.1-12.27,9.87-26.21,15.3-39.26,15.3a45.35,45.35,0,0,1-17.09-3.28c-30.62-12.38-41.83-56.36-25-98,8.45-20.9,23.06-38.45,40.08-48.16l.51-.29v-.58l.06-56.79a6.31,6.31,0,0,1,6.4-6.34m0-1a7.3,7.3,0,0,0-7.4,7.34l-.06,56.79c-16.67,9.51-31.6,26.59-40.52,48.66-17.08,42.25-5.65,86.73,25.54,99.33a46.19,46.19,0,0,0,17.46,3.36c27.12,0,55.93-22.39,69.94-57,12.26-30.32,9.84-61.78-4-81.8h0l-2.31-3.1L655.93,258a7.13,7.13,0,0,0-5.8-3Z" transform="translate(-74.7 -79.65)"/><path d="M152.57,470c-27.4,0-56-23.32-69.48-56.71-11.72-29-10.15-60.92,4-81.33l55.12-73.68a6.6,6.6,0,0,1,5.39-2.76,6.82,6.82,0,0,1,6.91,6.84l.05,57.08.26.15c17.12,9.76,31.81,27.4,40.3,48.41,16.95,41.93,5.62,86.2-25.26,98.68A45.93,45.93,0,0,1,152.57,470Z" transform="translate(-74.7 -79.65)"/><path d="M147.59,256h0a6.32,6.32,0,0,1,6.41,6.34l.05,56.79v.58l.51.29c17,9.71,31.64,27.26,40.09,48.16,16.84,41.68,5.64,85.66-25,98a45.35,45.35,0,0,1-17.09,3.28c-13,0-27-5.43-39.26-15.3-12.73-10.24-23-24.45-29.75-41.1a103.54,103.54,0,0,1-7.71-44.33c.8-14,4.81-26.63,11.59-36.45h0l0-.05,2.31-3.1,52.8-70.58a6.12,6.12,0,0,1,5-2.56m0-1a7.1,7.1,0,0,0-5.79,3L89,328.56l-2.31,3.1h0c-13.87,20-16.3,51.48-4,81.8,14,34.64,42.83,57,69.94,57A46.24,46.24,0,0,0,170,467.14c31.18-12.6,42.61-57.08,25.53-99.33-8.92-22.07-23.84-39.15-40.52-48.66L155,262.36a7.31,7.31,0,0,0-7.41-7.34Z" transform="translate(-74.7 -79.65)"/></svg>